:FULLY-SPECIFIED
:FORCE-ALL-JOINTS-BE-3DOF
:DEGREES
713
root 5.49047 21.3096 7.44929 -134.417 -83.9951 150.991
lfemur -32.7849 -12.8854 6.97731
ltibia 64.2863 0 0
lfoot 5.74349 -8.39349 0
ltoes 28.6479 0 0
rfemur -34.7813 -2.6143 -0.402541
rtibia 95.9621 0 0
rfoot 19.7976 -20.379 0
rtoes 41.3661 0 0
lowerback 5.74052 -0.761402 -1.90366
upperback -1.33582 -1.23255 -1.50804
thorax -4.57795 -0.590386 -0.403295
lowerneck -7.01506 -6.41333 -2.35588
upperneck -0.388845 -8.51539 4.89345
head 1.40346 -4.19341 1.6379
lclavicle 1.30223e-014 3.12442e-014 0
lhumerus -2.93234 -22.3414 20.5443
lradius 45.9757 0 0
lwrist 22.6604 0 0
lhand -21.5478 -3.12427 0
lfingers 7.12502 0 0
lthumb 4.84422 26.774 0
rclavicle 1.30223e-014 3.12442e-014 0
rhumerus -12.4975 -2.26514 -28.9337
rradius 97.6551 0 0
rwrist -10.1179 0 0
rhand -26.6234 -34.4646 0
rfingers 7.12502 0 0
rthumb -0.0563696 -784.444 0
714
root 5.49072 21.4196 7.62265 -137.511 -85.6027 154.015
lfemur -33.171 -13.6875 7.74849
ltibia 64.7052 0 0
lfoot 6.58894 -8.91782 0
ltoes 29.2408 0 0
rfemur -34.3081 -2.10058 -1.16068
rtibia 96.4871 0 0
rfoot 20.5806 -20.5212 0
rtoes 42.1485 0 0
lowerback 5.86855 -0.657403 -1.83934
upperback -1.32981 -1.09786 -1.53788
thorax -4.65672 -0.523435 -0.46694
lowerneck -6.94878 -6.43256 -2.39445
upperneck -0.411311 -8.53729 4.89662
head 1.38704 -4.20594 1.64656
lclavicle 1.29717e-014 3.15249e-014 0
lhumerus -2.35164 -21.291 18.5836
lradius 45.3139 0 0
lwrist 22.5993 0 0
lhand -21.8834 -3.23917 0
lfingers 7.12502 0 0
lthumb 4.52069 26.6792 0
rclavicle 1.29717e-014 3.15249e-014 0
rhumerus -11.6763 -2.05449 -28.2448
rradius 98.4557 0 0
rwrist -9.99384 0 0
rhand -26.5891 -34.1899 0
rfingers 7.12502 0 0
rthumb -0.0231779 -784.17 0
715
root 5.49097 21.5295 7.79601 -140.605 -87.2103 157.04
lfemur -33.5571 -14.4896 8.51967
ltibia 65.1241 0 0
lfoot 7.43438 -9.44215 0
ltoes 29.8338 0 0
rfemur -33.8349 -1.58686 -1.91882
rtibia 97.0122 0 0
rfoot 21.3635 -20.6634 0
rtoes 42.9309 0 0
lowerback 5.99658 -0.553404 -1.77502
upperback -1.3238 -0.963173 -1.56773
thorax -4.7355 -0.456483 -0.530585
lowerneck -6.88249 -6.45178 -2.43303
upperneck -0.433777 -8.5592 4.89979
head 1.37063 -4.21848 1.65523
lclavicle 1.2921e-014 3.18055e-014 0
lhumerus -1.77093 -20.2407 16.623
lradius 44.6521 0 0
lwrist 22.5382 0 0
lhand -22.2191 -3.35407 0
lfingers 7.12502 0 0
lthumb 4.19717 26.5843 0
rclavicle 1.2921e-014 3.18055e-014 0
rhumerus -10.8552 -1.84384 -27.5558
rradius 99.2563 0 0
rwrist -9.86977 0 0
rhand -26.5547 -33.9151 0
rfingers 7.12502 0 0
rthumb 0.0100137 -783.895 0
716
root 5.43489 21.4183 7.9813 -140.996 -84.5042 157.746
lfemur -33.8043 -13.6642 7.83282
ltibia 65.0411 0 0
lfoot 6.63527 -8.75165 0
ltoes 29.7345 0 0
rfemur -33.5052 -2.19374 -1.40125
rtibia 96.4591 0 0
rfoot 20.9532 -20.7591 0
rtoes 42.1337 0 0
lowerback 5.92142 -0.444145 -1.78981
upperback -1.317 -0.81414 -1.61762
thorax -4.68204 -0.381589 -0.580418
lowerneck -6.84636 -6.48516 -2.42105
upperneck -0.445545 -8.6023 4.90912
head 1.36213 -4.23915 1.65609
lclavicle 1.18569e-014 3.31463e-014 0
lhumerus -2.76362 -20.0634 18.1311
lradius 45.1386 0 0
lwrist 22.4516 0 0
lhand -22.2469 -3.40882 0
lfingers 7.12502 0 0
lthumb 4.17035 26.53 0
rclavicle 1.18569e-014 3.31463e-014 0
rhumerus -11.1558 -0.715802 -29.0933
rradius 98.89 0 0
rwrist -9.51093 0 0
rhand -26.2639 -33.6024 0
rfingers 7.12502 0 0
rthumb 0.290619 -783.573 0
717
root 5.37881 21.3071 8.16659 -141.386 -81.7981 158.452
lfemur -34.0515 -12.8388 7.14596
ltibia 64.9581 0 0
lfoot 5.83615 -8.06116 0
ltoes 29.6352 0 0
rfemur -33.1756 -2.80061 -0.883678
rtibia 95.9059 0 0
rfoot 20.5429 -20.8549 0
rtoes 41.3365 0 0
lowerback 5.84625 -0.334886 -1.8046
upperback -1.31019 -0.665106 -1.6675
thorax -4.62859 -0.306695 -0.630252
lowerneck -6.81024 -6.51854 -2.40907
upperneck -0.457313 -8.6454 4.91846
head 1.35363 -4.25982 1.65696
lclavicle 1.07928e-014 3.44871e-014 0
lhumerus -3.7563 -19.8861 19.6392
lradius 45.6251 0 0
lwrist 22.3651 0 0
lhand -22.2746 -3.46357 0
lfingers 7.12502 0 0
lthumb 4.14354 26.4757 0
rclavicle 1.07928e-014 3.44871e-014 0
rhumerus -11.4564 0.412236 -30.6308
rradius 98.5237 0 0
rwrist -9.15209 0 0
rhand -25.9732 -33.2898 0
rfingers 7.12502 0 0
rthumb 0.571225 -783.25 0
718
root 5.32274 21.1958 8.35187 -141.777 -79.0919 159.158
lfemur -34.2986 -12.0133 6.45911
ltibia 64.8751 0 0
lfoot 5.03704 -7.37066 0
ltoes 29.5359 0 0
rfemur -32.8459 -3.40749 -0.366107
rtibia 95.3528 0 0
rfoot 20.1326 -20.9506 0
rtoes 40.5392 0 0
lowerback 5.77109 -0.225627 -1.81939
upperback -1.30339 -0.516073 -1.71739
thorax -4.57513 -0.231802 -0.680085
lowerneck -6.77411 -6.55192 -2.39709
upperneck -0.469081 -8.68851 4.92779
head 1.34514 -4.28049 1.65782
lclavicle 9.72875e-015 3.58279e-014 0
lhumerus -4.74899 -19.7088 21.1473
lradius 46.1116 0 0
lwrist 22.2785 0 0
lhand -22.3024 -3.51832 0
lfingers 7.12502 0 0
lthumb 4.11672 26.4214 0
rclavicle 9.72875e-015 3.58279e-014 0
rhumerus -11.757 1.54027 -32.1683
rradius 98.1574 0 0
rwrist -8.79324 0 0
rhand -25.6824 -32.9771 0
rfingers 7.12502 0 0
rthumb 0.851831 -782.928 0
719
root 5.26666 21.0846 8.53716 -142.167 -76.3858 159.864
lfemur -34.5458 -11.1879 5.77225
ltibia 64.7922 0 0
lfoot 4.23793 -6.68016 0
ltoes 29.4366 0 0
rfemur -32.5163 -4.01436 0.151464
rtibia 94.7997 0 0
rfoot 19.7223 -21.0463 0
rtoes 39.742 0 0
lowerback 5.69592 -0.116368 -1.83418
upperback -1.29658 -0.367039 -1.76727
thorax -4.52168 -0.156908 -0.729919
lowerneck -6.73799 -6.58529 -2.38511
upperneck -0.480849 -8.73161 4.93712
head 1.33664 -4.30116 1.65868
lclavicle 8.66467e-015 3.71688e-014 0
lhumerus -5.74167 -19.5315 22.6554
lradius 46.5981 0 0
lwrist 22.192 0 0
lhand -22.3302 -3.57307 0
lfingers 7.12502 0 0
lthumb 4.0899 26.3671 0
rclavicle 8.66467e-015 3.71688e-014 0
rhumerus -12.0576 2.66831 -33.7058
rradius 97.7911 0 0
rwrist -8.4344 0 0
rhand -25.3917 -32.6645 0
rfingers 7.12502 0 0
rthumb 1.13244 -782.606 0
